<?xml version="1.0" encoding="iso-8859-1"?>
<!-- Generator: Adobe Illustrator 19.0.0, SVG Export Plug-In . SVG Version: 6.00 Build 0)  -->
<svg version="1.1" id="Layer_1" xmlns="http://www.w3.org/2000/svg" xmlns:xlink="http://www.w3.org/1999/xlink" x="0px" y="0px"
	 viewBox="0 0 512 512" style="enable-background:new 0 0 512 512;" xml:space="preserve">
<circle style="fill:#F8F8F9;" cx="256" cy="256" r="256"/>
<path style="fill:#EDEDED;" d="M256,0L256,0v512l0,0c141.384,0,256-114.614,256-256C512,114.616,397.384,0,256,0z"/>
<path style="fill:#88888F;" d="M105.412,150.588c56.587,0,102.758,44.588,105.302,100.548
	c-35.555,16.941-60.125,53.21-60.125,95.217c0,58.217,47.194,105.412,105.412,105.412s105.412-47.194,105.412-105.412
	c0-42.007-24.57-78.276-60.125-95.217c2.542-55.96,48.715-100.548,105.302-100.548C464.806,150.588,512,197.783,512,256
	C512,114.616,397.384,0,256,0C114.635,0,0.033,114.584,0.002,255.941C0.033,197.751,47.212,150.588,105.412,150.588z"/>
<path style="fill:#797781;" d="M256,0L256,0v451.765c58.217,0,105.412-47.194,105.412-105.412c0-42.007-24.57-78.276-60.125-95.217
	c2.542-55.96,48.715-100.548,105.302-100.548C464.806,150.588,512,197.783,512,256C512,114.616,397.384,0,256,0z"/>
<polygon style="fill:#EFC27B;" points="195.765,323.765 316.235,323.765 256,399.059 "/>
<path style="fill:#58575D;" d="M112.941,263.529h-0.003c-16.605,0-30.115-13.511-30.115-30.118
	c0.006-16.61,13.517-30.118,30.119-30.118c16.607,0,30.118,13.511,30.118,30.118S129.548,263.529,112.941,263.529z"/>
<path style="fill:#454449;" d="M399.059,263.529h-0.003c-16.607,0-30.115-13.511-30.115-30.118
	c0.006-16.61,13.517-30.118,30.118-30.118c16.607,0,30.118,13.511,30.118,30.118S415.666,263.529,399.059,263.529z"/>
<polygon style="fill:#ECB45C;" points="256,323.765 256,399.059 316.235,323.765 "/>
<g>
</g>
<g>
</g>
<g>
</g>
<g>
</g>
<g>
</g>
<g>
</g>
<g>
</g>
<g>
</g>
<g>
</g>
<g>
</g>
<g>
</g>
<g>
</g>
<g>
</g>
<g>
</g>
<g>
</g>
</svg>
